<svg xmlns="http://www.w3.org/2000/svg" viewBox="0 0 1571 233">
  <defs>
    <style>
      .cls-1 {
        fill: #424a60;
      }

      .cls-2 {
        fill: #556080;
      }

      .cls-3 {
        fill: #7383bf;
      }

      .cls-4 {
        fill: #1a9172;
      }

      .cls-5 {
        fill: #25ae88;
      }

      .cls-6 {
        fill: #88c057;
      }

      .cls-7 {
        fill: #61b872;
      }

      .cls-8 {
        fill: #fff;
        font-size: 175px;
        font-family: SegoeUI, Segoe UI;
      }
    </style>
  </defs>
  <g id="Group_7" data-name="Group 7" transform="translate(-240 -2121)">
    <g id="database" transform="translate(240 2124.285)">
      <g id="Group_2" data-name="Group 2" transform="translate(0 74.613)">
        <path id="Path_25" data-name="Path 25" class="cls-1" d="M92.985,78.116V40.341h.132a8.694,8.694,0,0,0-.132,1.453c0-9.442,14.963-17.636,36.938-21.793H13.979A13.98,13.98,0,0,0,0,33.979V79.631A13.98,13.98,0,0,0,13.979,93.613H92.985Z" transform="translate(0 -20)"/>
      </g>
      <g id="Group_3" data-name="Group 3" transform="translate(0 148.227)">
        <path id="Path_26" data-name="Path 26" class="cls-2" d="M93.117,93.242h-.132V39H13.979A13.98,13.98,0,0,0,0,52.979V98.631a13.98,13.98,0,0,0,13.979,13.983H125.244C106.937,108.472,94.45,101.389,93.117,93.242Z" transform="translate(0 -39)"/>
      </g>
      <path id="Path_27" data-name="Path 27" class="cls-2" d="M210.736,74.613H13.979A13.982,13.982,0,0,1,0,60.635V14.979A13.982,13.982,0,0,1,13.979,1H210.732a13.983,13.983,0,0,1,13.983,13.979V60.631A13.983,13.983,0,0,1,210.736,74.613Z"/>
      <circle id="Ellipse_1" data-name="Ellipse 1" class="cls-3" cx="13.56" cy="13.56" r="13.56" transform="translate(23.246 24.246)"/>
      <circle id="Ellipse_2" data-name="Ellipse 2" class="cls-3" cx="3.874" cy="3.874" r="3.874" transform="translate(185.971 28.121)"/>
      <circle id="Ellipse_3" data-name="Ellipse 3" class="cls-3" cx="3.874" cy="3.874" r="3.874" transform="translate(170.473 28.121)"/>
      <circle id="Ellipse_4" data-name="Ellipse 4" class="cls-3" cx="3.874" cy="3.874" r="3.874" transform="translate(193.72 39.744)"/>
      <circle id="Ellipse_5" data-name="Ellipse 5" class="cls-3" cx="3.874" cy="3.874" r="3.874" transform="translate(178.222 39.744)"/>
      <circle id="Ellipse_6" data-name="Ellipse 6" class="cls-3" cx="3.874" cy="3.874" r="3.874" transform="translate(154.976 28.121)"/>
      <circle id="Ellipse_7" data-name="Ellipse 7" class="cls-3" cx="3.874" cy="3.874" r="3.874" transform="translate(162.725 39.744)"/>
      <circle id="Ellipse_8" data-name="Ellipse 8" class="cls-3" cx="3.874" cy="3.874" r="3.874" transform="translate(139.478 28.121)"/>
      <circle id="Ellipse_9" data-name="Ellipse 9" class="cls-3" cx="3.874" cy="3.874" r="3.874" transform="translate(147.227 39.744)"/>
      <circle id="Ellipse_10" data-name="Ellipse 10" class="cls-3" cx="3.874" cy="3.874" r="3.874" transform="translate(123.981 28.121)"/>
      <circle id="Ellipse_11" data-name="Ellipse 11" class="cls-3" cx="3.874" cy="3.874" r="3.874" transform="translate(131.729 39.744)"/>
      <circle id="Ellipse_12" data-name="Ellipse 12" class="cls-3" cx="13.56" cy="13.56" r="13.56" transform="translate(23.246 97.86)"/>
      <circle id="Ellipse_13" data-name="Ellipse 13" class="cls-3" cx="13.56" cy="13.56" r="13.56" transform="translate(23.246 171.473)"/>
      <g id="Group_4" data-name="Group 4" transform="translate(92.985 159.85)">
        <path id="Path_28" data-name="Path 28" class="cls-4" d="M93.739,67.074C55.224,67.074,24,56.017,24,42.375V83.54h.132C26.255,96.5,56.6,106.787,93.739,106.787S161.223,96.5,163.346,83.54h.132V42.375C163.478,56.017,132.254,67.074,93.739,67.074Z" transform="translate(-24 -40.922)"/>
        <path id="Path_29" data-name="Path 29" class="cls-4" d="M24,42v1.453A8.7,8.7,0,0,1,24.132,42Z" transform="translate(-24 -42)"/>
        <path id="Path_30" data-name="Path 30" class="cls-4" d="M59.966,42a8.7,8.7,0,0,1,.132,1.453V42Z" transform="translate(79.38 -42)"/>
      </g>
      <g id="Group_5" data-name="Group 5" transform="translate(92.985 118.2)">
        <path id="Path_31" data-name="Path 31" class="cls-5" d="M93.739,56.324C55.224,56.324,24,45.267,24,31.625v43.1h.132C26.255,87.691,56.6,97.974,93.739,97.974s67.484-10.283,69.607-23.246h.132v-43.1C163.478,45.267,132.254,56.324,93.739,56.324Z" transform="translate(-24 -30.172)"/>
        <path id="Path_32" data-name="Path 32" class="cls-5" d="M24,31.25V32.7a8.7,8.7,0,0,1,.132-1.453Z" transform="translate(-24 -31.25)"/>
        <path id="Path_33" data-name="Path 33" class="cls-5" d="M59.966,31.25A8.7,8.7,0,0,1,60.1,32.7V31.25Z" transform="translate(79.38 -31.25)"/>
      </g>
      <ellipse id="Ellipse_14" data-name="Ellipse 14" class="cls-6" cx="69.739" cy="24.699" rx="69.739" ry="24.699" transform="translate(92.985 55.242)"/>
      <g id="Group_6" data-name="Group 6" transform="translate(92.985 78.488)">
        <path id="Path_34" data-name="Path 34" class="cls-7" d="M93.739,46.074C55.224,46.074,24,35.017,24,21.375V62.54h.132C26.255,75.5,56.6,85.787,93.739,85.787S161.223,75.5,163.346,62.54h.132V21.375C163.478,35.017,132.254,46.074,93.739,46.074Z" transform="translate(-24 -19.922)"/>
        <path id="Path_35" data-name="Path 35" class="cls-7" d="M24,21v1.453A8.7,8.7,0,0,1,24.132,21Z" transform="translate(-24 -21)"/>
        <path id="Path_36" data-name="Path 36" class="cls-7" d="M59.966,21a8.7,8.7,0,0,1,.132,1.453V21Z" transform="translate(79.38 -21)"/>
      </g>
    </g>
    <text id="Costco_Database" data-name="Costco Database" class="cls-8" transform="translate(517 2310)"><tspan x="0" y="0">Costco Database</tspan></text>
  </g>
</svg>
