<?xml version="1.0"?>
<svg xmlns="http://www.w3.org/2000/svg" xmlns:xlink="http://www.w3.org/1999/xlink" version="1.1" id="Layer_1" x="0px" y="0px" viewBox="0 0 460.8 460.8" style="enable-background:new 0 0 460.8 460.8;" xml:space="preserve" width="512px" height="512px" class=""><g transform="matrix(-1 2.44929e-16 2.44929e-16 1 460.8 -2.75983e-14)"><g>
	<g>
		<path d="M422.4,38.405h-80.092V38.4c-20.516,0-39.798,7.987-54.308,22.492L109.578,239.319C90.568,258.33,65.29,268.8,38.4,268.8    H0v38.4V384v38.4h38.4h80.092c20.516,0,39.798-7.987,54.308-22.492l178.422-178.422c19.01-19.011,44.288-29.481,71.178-29.481    h38.4v-38.4v-76.8v-38.4H422.4z M145.649,372.751c-1.505,1.505-3.139,2.836-4.849,4.055V358.4H160L145.649,372.751z M192,326.4    v-19.2h19.2L192,326.4z M243.2,275.2V256h19.2L243.2,275.2z M294.4,224v-19.2h19.2L294.4,224z M422.4,153.6    c-28.974,0-56.996,9.078-80.333,25.6H268.8v51.2h-51.2v51.2h-51.2v51.2h-51.2V384H38.4v-76.8c36.879,0,72.248-14.653,98.33-40.73    L315.151,88.049c7.199-7.204,16.968-11.249,27.151-11.249H422.4V153.6z" data-original="#000000" class="" fill="#000000"/>
	</g>
</g><g>
	<g>
		<polygon points="162.652,66.652 144.548,48.548 64,129.101 64,83.2 38.4,83.2 38.4,172.8 128,172.8 128,147.2 82.099,147.2   " data-original="#000000" class="" fill="#000000"/>
	</g>
</g></g> </svg>
