<svg xmlns="http://www.w3.org/2000/svg" viewBox="0 0 674.943 154.839">
  <defs>
    <style>
      .cls-1 {
        fill: #4c4e51;
      }

      .cls-2 {
        fill: #fff;
      }

      .cls-3 {
        fill: #2bb673;
      }

      .cls-4 {
        fill: #d8eddd;
      }

      .cls-5 {
        fill: #5ebf87;
      }

      .cls-6 {
        fill: #7fc99b;
      }

      .cls-7 {
        fill: #9ed4b0;
      }

      .cls-8 {
        fill: #bbe0c6;
      }
    </style>
  </defs>
  <g id="EcoSnap_Logo_600x" transform="translate(-8.798 -7.038)">
    <path id="Path_1" data-name="Path 1" class="cls-1" d="M217.506,126l1.587-23.867,1.777-44.624.191-9.712q.063-3.682.063-8.442,14.346.063,29.39.063l20.249-.063h6.474q-.444,4.38-.571,8.823l-5.649-.317q-2.1-.127-7.237-.191-5.078-.063-10.092-.063-14.98,0-20.884.191l-1.143,29.77q9.775.19,17.52.19,8.442,0,22.153-.254-.444,4.443-.571,8.76l-21.836-.191q-6.411,0-17.837.254l-1.143,31.358,6.6.063q17.964,0,23.8-.127,5.9-.127,13.774-.571-.444,4.7-.571,8.95-15.3-.127-25.835-.127Zm119.463-9.648q-.127,1.016-.7,3.808-.508,2.73-.889,5.4a64.571,64.571,0,0,1-8.95,1.46q-4.254.381-7.491.38a42.036,42.036,0,0,1-12.7-1.84,24.873,24.873,0,0,1-16.44-16.5,42.642,42.642,0,0,1-2.032-13.2,47.889,47.889,0,0,1,3.3-17.71A27.511,27.511,0,0,1,301.485,65q7.11-4.761,19.361-4.761a64.584,64.584,0,0,1,17.583,2.412q.381,5.4.7,8.887A75.547,75.547,0,0,0,329.288,69a39.269,39.269,0,0,0-7.046-.7,23.855,23.855,0,0,0-10.029,2.031,21.238,21.238,0,0,0-7.49,5.776,23.233,23.233,0,0,0-4.507,8.887,41.551,41.551,0,0,0-1.333,10.474,32.838,32.838,0,0,0,2.221,12.568,16.533,16.533,0,0,0,7.745,8.379,26.576,26.576,0,0,0,12.505,2.92A50.034,50.034,0,0,0,336.969,116.352Zm46.147-56.114a41.914,41.914,0,0,1,12.7,1.9,26.658,26.658,0,0,1,10.41,6.03,26.1,26.1,0,0,1,6.728,10.41,38.5,38.5,0,0,1,2.285,13.267,42.64,42.64,0,0,1-2.475,14.472,33.2,33.2,0,0,1-6.856,11.743,26.188,26.188,0,0,1-10.791,7.11,41.026,41.026,0,0,1-13.647,2.221,39.9,39.9,0,0,1-12.822-2.031,27.351,27.351,0,0,1-10.474-6.347,28.208,28.208,0,0,1-6.665-10.538,38.131,38.131,0,0,1-2.285-13.139,40.5,40.5,0,0,1,4.189-18.6,27.051,27.051,0,0,1,12.315-12.378A37.873,37.873,0,0,1,383.116,60.238Zm-.254,8.061a22.97,22.97,0,0,0-11.933,3.237,19.274,19.274,0,0,0-8,9.775,37.612,37.612,0,0,0-2.6,14.155,32.417,32.417,0,0,0,2.158,12.124,18.577,18.577,0,0,0,7.11,8.633,21.018,21.018,0,0,0,11.933,3.3,25.57,25.57,0,0,0,9.014-1.587,18.373,18.373,0,0,0,7.427-5.4,24.02,24.02,0,0,0,4.7-9.141,42.292,42.292,0,0,0,1.523-11.425A35,35,0,0,0,402.667,81.5a17.66,17.66,0,0,0-11.807-12A27.143,27.143,0,0,0,382.862,68.3Z"/>
    <path id="Path_2" data-name="Path 2" class="cls-2" d="M425.328,123.334a49.563,49.563,0,0,0-.381-5.713q12,5.776,21.9,5.776a27.134,27.134,0,0,0,10.219-1.84,15.1,15.1,0,0,0,7.046-5.459,14.406,14.406,0,0,0,2.539-8.379,13.951,13.951,0,0,0-.7-4.444,15.812,15.812,0,0,0-2.158-4.316,35.41,35.41,0,0,0-5.332-5.649q-3.746-3.491-12.505-10.791l-5.015-4.189q-2.6-2.285-5.014-4.761a49.646,49.646,0,0,1-4-4.57,27.127,27.127,0,0,1-2.412-3.809,19.839,19.839,0,0,1-1.651-7.935,17.683,17.683,0,0,1,2.793-9.585,19.109,19.109,0,0,1,8.316-7.046q5.521-2.6,14.028-2.6a84.863,84.863,0,0,1,15.044,1.714,37.067,37.067,0,0,0,.571,5.332,72.745,72.745,0,0,0-9.712-2.476,45.571,45.571,0,0,0-7.363-.635A22.5,22.5,0,0,0,441.2,44.052a15.417,15.417,0,0,0-6.284,5.522,13.092,13.092,0,0,0-2.222,7.236,14.269,14.269,0,0,0,.572,4,16.327,16.327,0,0,0,1.841,3.936,42.259,42.259,0,0,0,3.491,4.38q2.158,2.349,5.586,5.4,3.49,3.047,9.2,7.808,5.776,4.761,8,6.792a45.5,45.5,0,0,1,4.316,4.253,25.765,25.765,0,0,1,3.3,4.57,17.389,17.389,0,0,1,1.841,4.634,19.886,19.886,0,0,1,.635,5.078,17.841,17.841,0,0,1-11.934,17.329,35.8,35.8,0,0,1-13.14,2.286,53.986,53.986,0,0,1-9.14-.762A80.269,80.269,0,0,1,425.328,123.334Zm60.3,2.666,2.158-38.784L488.36,69q.128-4.888.127-7.109,1.652.063,2.476.063.762,0,2.412-.063l-.825,14.473q1.4-2.983,2.285-4.507a22.632,22.632,0,0,1,2.539-3.364,21.978,21.978,0,0,1,3.745-3.3,19.737,19.737,0,0,1,5.269-2.6,33,33,0,0,1,6.347-1.523,41.328,41.328,0,0,1,6.411-.508,44.094,44.094,0,0,1,10.347,1.206,18.653,18.653,0,0,1,8.316,4.19,14.9,14.9,0,0,1,4.506,6.792,25.718,25.718,0,0,1,1.27,8.188q0,1.968-.19,5.84l-1.333,28.882L541.808,126q-1.27-.063-2.476-.063T536.92,126q.635-7.935,1.016-15.171l.888-16.25q.509-9.014.508-13.013a21.729,21.729,0,0,0-1.206-7.49,11.51,11.51,0,0,0-4.189-5.459,18.252,18.252,0,0,0-6.983-3.174,34.412,34.412,0,0,0-8.379-1.016,31.711,31.711,0,0,0-10.664,1.65,22,22,0,0,0-7.681,4.7,23.255,23.255,0,0,0-5.4,7.744,34.407,34.407,0,0,0-2.412,9.585q-.762,5.332-1.27,17.456-.444,12.06-.444,20.439-1.65-.063-2.539-.063T485.631,126Zm78.076-57.383a44.956,44.956,0,0,0,.7-4.951,86.69,86.69,0,0,1,11.236-2.412,66.391,66.391,0,0,1,9.648-.7,50.848,50.848,0,0,1,10.474,1.016,18.662,18.662,0,0,1,7.934,3.3,10.6,10.6,0,0,1,4.063,5.269,18.789,18.789,0,0,1,1.015,6.094q0,3.174-.254,8.062-.189,4.824-.571,10.41t-.7,13.965q-.318,8.316-.317,12V126q-1.652-.063-2.666-.063-1.08,0-2.666.063.888-9.712,1.206-15.742.379-6.03.571-12.949.254-6.982.635-13.013-1.968,1.65-3.047,2.476a14.93,14.93,0,0,1-2.285,1.4A30.315,30.315,0,0,1,595.7,89.5q-1.713.635-3.174,1.143-1.46.444-7.109,1.968-5.586,1.524-8,2.285a55,55,0,0,0-8.442,3.364,23.426,23.426,0,0,0-5.4,3.808,12.307,12.307,0,0,0-2.793,3.872,13.115,13.115,0,0,0-1.016,5.142,11.03,11.03,0,0,0,2.476,7.173,13.394,13.394,0,0,0,6.221,4.316,30.481,30.481,0,0,0,9.14,1.206,50.187,50.187,0,0,0,5.142-.254q2.475-.316,4.634-.761,2.222-.508,6.347-1.841-.57,2.412-.952,4.824a75.911,75.911,0,0,1-8.379,1.27q-3.173.316-6.03.317a54.736,54.736,0,0,1-9.839-.825,16.826,16.826,0,0,1-7.553-3.237,15.24,15.24,0,0,1-4.507-5.586,15.758,15.758,0,0,1-1.46-6.665,15.112,15.112,0,0,1,.888-5.142,16.226,16.226,0,0,1,2.73-4.824,17.015,17.015,0,0,1,4.062-3.555,32.432,32.432,0,0,1,6.6-3.428q4.189-1.65,9.014-3.047,1.332-.381,10.473-2.729a54.613,54.613,0,0,0,7.808-2.666,13.675,13.675,0,0,0,5.713-4.507,10.259,10.259,0,0,0,2.031-5.9,9.354,9.354,0,0,0-.952-4.126,10.177,10.177,0,0,0-3.428-3.809,14.729,14.729,0,0,0-6.03-2.476,40.141,40.141,0,0,0-7.617-.7,56.385,56.385,0,0,0-8.7.635,48.455,48.455,0,0,0-6.855,1.4A66.46,66.46,0,0,0,563.707,68.617Zm60.049,85.567.762-12.823,2.031-57.509.444-19.3a125.548,125.548,0,0,1,14.409-3.11,85.29,85.29,0,0,1,12.061-.889,37.2,37.2,0,0,1,16,3.174A21.845,21.845,0,0,1,680,74.457a38.766,38.766,0,0,1,3.745,17.329,44.03,44.03,0,0,1-4,18.853q-3.936,8.569-10.727,12.632a28.887,28.887,0,0,1-15.044,4,33.028,33.028,0,0,1-7.364-.826,26.12,26.12,0,0,1-6.665-2.475,20.617,20.617,0,0,1-5.141-4.126,46.379,46.379,0,0,1-4.888-7.681L628.9,145.8v2.158q0,2.158.064,6.221-1.65-.064-2.6-.064T623.756,154.184Zm8.125-85.694q-.508,5.4-.952,15.425-.381,10.029-.381,13.267a44.039,44.039,0,0,0,1.142,10.283,20.38,20.38,0,0,0,4.571,8.633,22.309,22.309,0,0,0,8.061,5.84,24.917,24.917,0,0,0,9.712,1.967,22.436,22.436,0,0,0,12.886-3.872,24.657,24.657,0,0,0,8.823-11.426,42.642,42.642,0,0,0,3.174-16.567,34.545,34.545,0,0,0-3.237-15.488,20.483,20.483,0,0,0-8.824-9.458,26.016,26.016,0,0,0-12.568-2.983A64.466,64.466,0,0,0,631.881,68.49Z"/>
    <path id="Path_3" data-name="Path 3" class="cls-3" d="M70.49,59.081,95.35,16.053a75.841,75.841,0,0,0-7.8-.6A72.971,72.971,0,0,0,32.287,40.793l24.4,42.214Z"/>
    <path id="Path_4" data-name="Path 4" class="cls-4" d="M53.949,89.619,28.493,45.559A73.051,73.051,0,0,0,17.612,110.29v.258c.179.734.357,1.509.516,2.283h49.2Z"/>
    <path id="Path_5" data-name="Path 5" class="cls-5" d="M104.383,59.081H155.85A116.375,116.375,0,0,1,154.1,38.927a118.121,118.121,0,0,1,4.368-31.889,72.811,72.811,0,0,1-39.95,11.914c-2.423,0-9.809-1.112-17.037-1.986l-24.4,42.115Z"/>
    <path id="Path_6" data-name="Path 6" class="cls-6" d="M121.758,88.666l24.9,43.127a72.687,72.687,0,0,0,14.138-43.107,74.185,74.185,0,0,0-3.4-22.08c-.139-.6-.239-1.191-.378-1.767H107.958Z"/>
    <path id="Path_7" data-name="Path 7" class="cls-7" d="M104.663,118.232l-24.92,43.187a72.418,72.418,0,0,0,63.1-24.82L118.463,94.4Z"/>
    <path id="Path_8" data-name="Path 8" class="cls-8" d="M71.3,118.232H19.221a39.565,39.565,0,0,1,.576,5.957,45.1,45.1,0,0,1-9.65,28.037c-.933,1.191-1.509,1.985-1.31,2.1s.973-.357,2.343-1.032a44.755,44.755,0,0,1,20.968-5.1c7.406,0,17.453,3.971,24.641,6.95,0,0,7.942,3.137,9.233,3.494a70.538,70.538,0,0,0,7.664,1.867l24.463-42.274Z"/>
  </g>
</svg>
